<svg xmlns="http://www.w3.org/2000/svg" viewBox="0 0 100 100" width="100" height="100">
  <defs>
    <linearGradient id="favicon-grad" x1="0%" y1="0%" x2="100%" y2="100%">
      <stop offset="0%" stop-color="#6366f1" />
      <stop offset="100%" stop-color="#06b6d4" />
    </linearGradient>
  </defs>
  <rect width="100" height="100" rx="20" fill="url(#favicon-grad)" />
  <path d="M 50 25 C 38 25 32 32 32 45 C 32 50 35 55 38 58 C 36 62 38 68 45 68 C 48 68 50 64 50 64 C 50 64 52 68 55 68 C 62 68 64 62 62 58 C 65 55 68 50 68 45 C 68 32 62 25 50 25 Z" fill="#ffffff" />
  <path d="M 50 25 L 50 64" stroke="#6366f1" stroke-width="3" stroke-linecap="round" />
  <circle cx="50" cy="35" r="4" fill="#06b6d4" />
  <circle cx="42" cy="45" r="3" fill="#6366f1" />
  <circle cx="58" cy="45" r="3" fill="#6366f1" />
</svg>
